<svg id="hound_body" xmlns="http://www.w3.org/2000/svg" xmlns:xlink="http://www.w3.org/1999/xlink" width="200" height="125" viewBox="0, 0, 400,243.7673130193906"><g id="svgg"><path id="path0" d="M22.679 8.923 C 21.172 11.361,28.182 22.812,35.926 30.561 C 47.357 41.999,62.593 50.177,81.440 54.991 C 85.706 56.081,89.384 57.097,89.612 57.249 C 89.841 57.401,88.203 60.273,85.974 63.632 C 80.478 71.913,77.146 81.225,73.608 98.190 C 67.026 129.762,59.642 143.438,37.140 165.734 C 26.619 176.159,23.380 180.074,22.475 183.463 C 21.836 185.855,19.011 196.090,16.197 206.208 C 13.383 216.326,11.080 226.192,11.080 228.133 L 11.080 231.662 21.330 231.344 L 31.579 231.025 31.579 227.180 C 31.579 223.535,30.148 221.984,25.161 220.223 C 24.678 220.053,27.113 213.957,30.573 206.678 C 34.034 199.399,37.670 190.930,38.654 187.858 L 40.443 182.273 56.510 176.604 C 75.489 169.907,81.962 167.044,93.385 160.290 C 98.064 157.524,102.132 155.648,102.424 156.121 C 103.750 158.266,104.366 189.149,103.170 193.520 C 101.912 198.120,103.089 203.340,110.936 227.978 L 112.083 231.579 122.524 231.579 C 132.763 231.579,132.964 231.528,132.964 228.958 C 132.964 225.702,129.008 220.504,126.512 220.482 C 118.352 220.407,115.003 199.836,121.156 187.577 C 126.455 177.019,132.584 160.194,136.323 145.942 C 138.074 139.268,139.746 133.569,140.039 133.276 C 142.838 130.477,161.239 138.923,174.556 149.120 C 186.686 158.408,196.954 163.710,210.975 167.922 C 223.933 171.815,224.114 172.174,223.223 192.244 C 222.875 200.075,223.224 210.777,224.073 218.283 L 225.514 231.025 237.380 231.339 C 252.079 231.728,256.007 226.380,245.976 219.637 C 240.436 215.914,239.910 212.584,242.086 195.014 C 245.456 167.794,246.936 166.780,260.902 182.122 C 271.559 193.829,271.627 192.884,259.958 195.231 C 248.515 197.532,247.091 198.432,247.091 203.361 C 247.091 213.757,256.284 214.879,275.390 206.814 C 295.459 198.343,295.162 199.007,287.081 180.727 C 284.089 173.959,281.896 168.421,282.209 168.421 C 284.768 168.421,302.793 178.224,306.025 181.374 C 313.375 188.537,313.528 190.376,307.620 200.544 C 301.101 211.763,300.839 215.907,306.322 221.078 C 314.635 228.918,331.237 230.931,336.971 224.793 L 340.204 221.332 344.340 224.188 C 352.868 230.077,356.407 230.991,370.637 230.979 C 394.367 230.958,394.062 231.862,379.889 203.556 C 370.027 183.860,368.569 180.206,367.781 173.209 C 366.267 159.779,360.725 151.577,349.564 146.251 C 343.594 143.401,341.327 141.401,334.790 133.215 C 318.432 112.731,295.474 92.566,279.287 84.465 L 271.038 80.337 242.167 79.583 C 198.706 78.448,161.391 69.818,137.396 55.352 C 130.094 50.949,122.724 49.028,110.179 48.258 C 74.917 46.091,31.199 26.230,26.061 10.043 C 25.272 7.558,23.820 7.076,22.679 8.923 " stroke="none" fill="#000000" fill-rule="evenodd"></path></g></svg>